<?xml version="1.0" encoding="UTF-8" standalone="no"?>
<!DOCTYPE svg PUBLIC "-//W3C//DTD SVG 1.1//EN"
 "http://www.w3.org/Graphics/SVG/1.1/DTD/svg11.dtd">
<!-- Generated by graphviz version 2.38.0 (20140413.2041)
 -->
<!-- Title: Tree Pages: 1 -->
<svg width="994pt" height="671pt"
 viewBox="0.00 0.00 994.00 671.00" xmlns="http://www.w3.org/2000/svg" xmlns:xlink="http://www.w3.org/1999/xlink">
<g id="graph0" class="graph" transform="scale(1 1) rotate(0) translate(4 667)">
<title>Tree</title>
<polygon fill="white" stroke="none" points="-4,4 -4,-667 990,-667 990,4 -4,4"/>
<!-- 0 -->
<g id="node1" class="node"><title>0</title>
<path fill="#e58139" fill-opacity="0.403922" stroke="black" d="M583,-663C583,-663 422,-663 422,-663 416,-663 410,-657 410,-651 410,-651 410,-592 410,-592 410,-586 416,-580 422,-580 422,-580 583,-580 583,-580 589,-580 595,-586 595,-592 595,-592 595,-651 595,-651 595,-657 589,-663 583,-663"/>
<text text-anchor="middle" x="502.5" y="-647.8" font-family="Helvetica,sans-Serif" font-size="14.00">worst_perimeter &lt;= &#45;0.039</text>
<text text-anchor="middle" x="502.5" y="-632.8" font-family="Helvetica,sans-Serif" font-size="14.00">entropy = 0.953</text>
<text text-anchor="middle" x="502.5" y="-617.8" font-family="Helvetica,sans-Serif" font-size="14.00">samples = 455</text>
<text text-anchor="middle" x="502.5" y="-602.8" font-family="Helvetica,sans-Serif" font-size="14.00">value = [285, 170]</text>
<text text-anchor="middle" x="502.5" y="-587.8" font-family="Helvetica,sans-Serif" font-size="14.00">class = benign</text>
</g>
<!-- 1 -->
<g id="node2" class="node"><title>1</title>
<path fill="#e58139" fill-opacity="0.952941" stroke="black" d="M484,-544C484,-544 289,-544 289,-544 283,-544 277,-538 277,-532 277,-532 277,-473 277,-473 277,-467 283,-461 289,-461 289,-461 484,-461 484,-461 490,-461 496,-467 496,-473 496,-473 496,-532 496,-532 496,-538 490,-544 484,-544"/>
<text text-anchor="middle" x="386.5" y="-528.8" font-family="Helvetica,sans-Serif" font-size="14.00">worst_concave_points &lt;= 0.674</text>
<text text-anchor="middle" x="386.5" y="-513.8" font-family="Helvetica,sans-Serif" font-size="14.00">entropy = 0.261</text>
<text text-anchor="middle" x="386.5" y="-498.8" font-family="Helvetica,sans-Serif" font-size="14.00">samples = 272</text>
<text text-anchor="middle" x="386.5" y="-483.8" font-family="Helvetica,sans-Serif" font-size="14.00">value = [260, 12]</text>
<text text-anchor="middle" x="386.5" y="-468.8" font-family="Helvetica,sans-Serif" font-size="14.00">class = benign</text>
</g>
<!-- 0&#45;&gt;1 -->
<g id="edge1" class="edge"><title>0&#45;&gt;1</title>
<path fill="none" stroke="black" d="M462.254,-579.907C453.077,-570.651 443.243,-560.732 433.801,-551.209"/>
<polygon fill="black" stroke="black" points="436.201,-548.658 426.674,-544.021 431.23,-553.586 436.201,-548.658"/>
<text text-anchor="middle" x="426.567" y="-565.321" font-family="Helvetica,sans-Serif" font-size="14.00">True</text>
</g>
<!-- 10 -->
<g id="node11" class="node"><title>10</title>
<path fill="#399de5" fill-opacity="0.843137" stroke="black" d="M713,-544C713,-544 526,-544 526,-544 520,-544 514,-538 514,-532 514,-532 514,-473 514,-473 514,-467 520,-461 526,-461 526,-461 713,-461 713,-461 719,-461 725,-467 725,-473 725,-473 725,-532 725,-532 725,-538 719,-544 713,-544"/>
<text text-anchor="middle" x="619.5" y="-528.8" font-family="Helvetica,sans-Serif" font-size="14.00">worst_concave_points &lt;= 0.55</text>
<text text-anchor="middle" x="619.5" y="-513.8" font-family="Helvetica,sans-Serif" font-size="14.00">entropy = 0.575</text>
<text text-anchor="middle" x="619.5" y="-498.8" font-family="Helvetica,sans-Serif" font-size="14.00">samples = 183</text>
<text text-anchor="middle" x="619.5" y="-483.8" font-family="Helvetica,sans-Serif" font-size="14.00">value = [25, 158]</text>
<text text-anchor="middle" x="619.5" y="-468.8" font-family="Helvetica,sans-Serif" font-size="14.00">class = malignant</text>
</g>
<!-- 0&#45;&gt;10 -->
<g id="edge10" class="edge"><title>0&#45;&gt;10</title>
<path fill="none" stroke="black" d="M543.093,-579.907C552.349,-570.651 562.268,-560.732 571.791,-551.209"/>
<polygon fill="black" stroke="black" points="574.383,-553.567 578.979,-544.021 569.433,-548.617 574.383,-553.567"/>
<text text-anchor="middle" x="578.979" y="-565.321" font-family="Helvetica,sans-Serif" font-size="14.00">False</text>
</g>
<!-- 2 -->
<g id="node3" class="node"><title>2</title>
<path fill="#e58139" fill-opacity="0.984314" stroke="black" d="M328,-425C328,-425 217,-425 217,-425 211,-425 205,-419 205,-413 205,-413 205,-354 205,-354 205,-348 211,-342 217,-342 217,-342 328,-342 328,-342 334,-342 340,-348 340,-354 340,-354 340,-413 340,-413 340,-419 334,-425 328,-425"/>
<text text-anchor="middle" x="272.5" y="-409.8" font-family="Helvetica,sans-Serif" font-size="14.00">area_error &lt;= 0.19</text>
<text text-anchor="middle" x="272.5" y="-394.8" font-family="Helvetica,sans-Serif" font-size="14.00">entropy = 0.114</text>
<text text-anchor="middle" x="272.5" y="-379.8" font-family="Helvetica,sans-Serif" font-size="14.00">samples = 263</text>
<text text-anchor="middle" x="272.5" y="-364.8" font-family="Helvetica,sans-Serif" font-size="14.00">value = [259, 4]</text>
<text text-anchor="middle" x="272.5" y="-349.8" font-family="Helvetica,sans-Serif" font-size="14.00">class = benign</text>
</g>
<!-- 1&#45;&gt;2 -->
<g id="edge2" class="edge"><title>1&#45;&gt;2</title>
<path fill="none" stroke="black" d="M346.948,-460.907C337.929,-451.651 328.265,-441.732 318.986,-432.209"/>
<polygon fill="black" stroke="black" points="321.467,-429.741 311.982,-425.021 316.454,-434.626 321.467,-429.741"/>
</g>
<!-- 9 -->
<g id="node10" class="node"><title>9</title>
<path fill="#399de5" fill-opacity="0.874510" stroke="black" d="M471,-417.5C471,-417.5 370,-417.5 370,-417.5 364,-417.5 358,-411.5 358,-405.5 358,-405.5 358,-361.5 358,-361.5 358,-355.5 364,-349.5 370,-349.5 370,-349.5 471,-349.5 471,-349.5 477,-349.5 483,-355.5 483,-361.5 483,-361.5 483,-405.5 483,-405.5 483,-411.5 477,-417.5 471,-417.5"/>
<text text-anchor="middle" x="420.5" y="-402.3" font-family="Helvetica,sans-Serif" font-size="14.00">entropy = 0.503</text>
<text text-anchor="middle" x="420.5" y="-387.3" font-family="Helvetica,sans-Serif" font-size="14.00">samples = 9</text>
<text text-anchor="middle" x="420.5" y="-372.3" font-family="Helvetica,sans-Serif" font-size="14.00">value = [1, 8]</text>
<text text-anchor="middle" x="420.5" y="-357.3" font-family="Helvetica,sans-Serif" font-size="14.00">class = malignant</text>
</g>
<!-- 1&#45;&gt;9 -->
<g id="edge9" class="edge"><title>1&#45;&gt;9</title>
<path fill="none" stroke="black" d="M398.296,-460.907C401.439,-450.094 404.844,-438.376 408.021,-427.441"/>
<polygon fill="black" stroke="black" points="411.432,-428.246 410.862,-417.667 404.71,-426.293 411.432,-428.246"/>
</g>
<!-- 3 -->
<g id="node4" class="node"><title>3</title>
<path fill="#e58139" fill-opacity="0.992157" stroke="black" d="M203.5,-306C203.5,-306 65.5,-306 65.5,-306 59.5,-306 53.5,-300 53.5,-294 53.5,-294 53.5,-235 53.5,-235 53.5,-229 59.5,-223 65.5,-223 65.5,-223 203.5,-223 203.5,-223 209.5,-223 215.5,-229 215.5,-235 215.5,-235 215.5,-294 215.5,-294 215.5,-300 209.5,-306 203.5,-306"/>
<text text-anchor="middle" x="134.5" y="-290.8" font-family="Helvetica,sans-Serif" font-size="14.00">worst_texture &lt;= 1.236</text>
<text text-anchor="middle" x="134.5" y="-275.8" font-family="Helvetica,sans-Serif" font-size="14.00">entropy = 0.065</text>
<text text-anchor="middle" x="134.5" y="-260.8" font-family="Helvetica,sans-Serif" font-size="14.00">samples = 258</text>
<text text-anchor="middle" x="134.5" y="-245.8" font-family="Helvetica,sans-Serif" font-size="14.00">value = [256, 2]</text>
<text text-anchor="middle" x="134.5" y="-230.8" font-family="Helvetica,sans-Serif" font-size="14.00">class = benign</text>
</g>
<!-- 2&#45;&gt;3 -->
<g id="edge3" class="edge"><title>2&#45;&gt;3</title>
<path fill="none" stroke="black" d="M224.622,-341.907C213.489,-332.469 201.546,-322.343 190.112,-312.649"/>
<polygon fill="black" stroke="black" points="192.185,-309.818 182.294,-306.021 187.658,-315.157 192.185,-309.818"/>
</g>
<!-- 8 -->
<g id="node9" class="node"><title>8</title>
<path fill="#e58139" fill-opacity="0.333333" stroke="black" d="M337.5,-298.5C337.5,-298.5 245.5,-298.5 245.5,-298.5 239.5,-298.5 233.5,-292.5 233.5,-286.5 233.5,-286.5 233.5,-242.5 233.5,-242.5 233.5,-236.5 239.5,-230.5 245.5,-230.5 245.5,-230.5 337.5,-230.5 337.5,-230.5 343.5,-230.5 349.5,-236.5 349.5,-242.5 349.5,-242.5 349.5,-286.5 349.5,-286.5 349.5,-292.5 343.5,-298.5 337.5,-298.5"/>
<text text-anchor="middle" x="291.5" y="-283.3" font-family="Helvetica,sans-Serif" font-size="14.00">entropy = 0.971</text>
<text text-anchor="middle" x="291.5" y="-268.3" font-family="Helvetica,sans-Serif" font-size="14.00">samples = 5</text>
<text text-anchor="middle" x="291.5" y="-253.3" font-family="Helvetica,sans-Serif" font-size="14.00">value = [3, 2]</text>
<text text-anchor="middle" x="291.5" y="-238.3" font-family="Helvetica,sans-Serif" font-size="14.00">class = benign</text>
</g>
<!-- 2&#45;&gt;8 -->
<g id="edge8" class="edge"><title>2&#45;&gt;8</title>
<path fill="none" stroke="black" d="M279.092,-341.907C280.83,-331.204 282.712,-319.615 284.472,-308.776"/>
<polygon fill="black" stroke="black" points="287.966,-309.099 286.114,-298.667 281.056,-307.977 287.966,-309.099"/>
</g>
<!-- 4 -->
<g id="node5" class="node"><title>4</title>
<path fill="#e58139" stroke="black" d="M101,-179.5C101,-179.5 12,-179.5 12,-179.5 6,-179.5 0,-173.5 0,-167.5 0,-167.5 0,-123.5 0,-123.5 0,-117.5 6,-111.5 12,-111.5 12,-111.5 101,-111.5 101,-111.5 107,-111.5 113,-117.5 113,-123.5 113,-123.5 113,-167.5 113,-167.5 113,-173.5 107,-179.5 101,-179.5"/>
<text text-anchor="middle" x="56.5" y="-164.3" font-family="Helvetica,sans-Serif" font-size="14.00">entropy = 0.0</text>
<text text-anchor="middle" x="56.5" y="-149.3" font-family="Helvetica,sans-Serif" font-size="14.00">samples = 240</text>
<text text-anchor="middle" x="56.5" y="-134.3" font-family="Helvetica,sans-Serif" font-size="14.00">value = [240, 0]</text>
<text text-anchor="middle" x="56.5" y="-119.3" font-family="Helvetica,sans-Serif" font-size="14.00">class = benign</text>
</g>
<!-- 3&#45;&gt;4 -->
<g id="edge4" class="edge"><title>3&#45;&gt;4</title>
<path fill="none" stroke="black" d="M107.438,-222.907C99.9348,-211.652 91.7789,-199.418 84.2375,-188.106"/>
<polygon fill="black" stroke="black" points="87.0705,-186.046 78.6113,-179.667 81.2462,-189.929 87.0705,-186.046"/>
</g>
<!-- 5 -->
<g id="node6" class="node"><title>5</title>
<path fill="#e58139" fill-opacity="0.874510" stroke="black" d="M281.5,-187C281.5,-187 143.5,-187 143.5,-187 137.5,-187 131.5,-181 131.5,-175 131.5,-175 131.5,-116 131.5,-116 131.5,-110 137.5,-104 143.5,-104 143.5,-104 281.5,-104 281.5,-104 287.5,-104 293.5,-110 293.5,-116 293.5,-116 293.5,-175 293.5,-175 293.5,-181 287.5,-187 281.5,-187"/>
<text text-anchor="middle" x="212.5" y="-171.8" font-family="Helvetica,sans-Serif" font-size="14.00">worst_radius &lt;= &#45;0.395</text>
<text text-anchor="middle" x="212.5" y="-156.8" font-family="Helvetica,sans-Serif" font-size="14.00">entropy = 0.503</text>
<text text-anchor="middle" x="212.5" y="-141.8" font-family="Helvetica,sans-Serif" font-size="14.00">samples = 18</text>
<text text-anchor="middle" x="212.5" y="-126.8" font-family="Helvetica,sans-Serif" font-size="14.00">value = [16, 2]</text>
<text text-anchor="middle" x="212.5" y="-111.8" font-family="Helvetica,sans-Serif" font-size="14.00">class = benign</text>
</g>
<!-- 3&#45;&gt;5 -->
<g id="edge5" class="edge"><title>3&#45;&gt;5</title>
<path fill="none" stroke="black" d="M161.562,-222.907C167.43,-214.105 173.698,-204.703 179.759,-195.612"/>
<polygon fill="black" stroke="black" points="182.851,-197.283 185.486,-187.021 177.027,-193.4 182.851,-197.283"/>
</g>
<!-- 6 -->
<g id="node7" class="node"><title>6</title>
<path fill="#e58139" stroke="black" d="M157.5,-68C157.5,-68 73.5,-68 73.5,-68 67.5,-68 61.5,-62 61.5,-56 61.5,-56 61.5,-12 61.5,-12 61.5,-6 67.5,-0 73.5,-0 73.5,-0 157.5,-0 157.5,-0 163.5,-0 169.5,-6 169.5,-12 169.5,-12 169.5,-56 169.5,-56 169.5,-62 163.5,-68 157.5,-68"/>
<text text-anchor="middle" x="115.5" y="-52.8" font-family="Helvetica,sans-Serif" font-size="14.00">entropy = 0.0</text>
<text text-anchor="middle" x="115.5" y="-37.8" font-family="Helvetica,sans-Serif" font-size="14.00">samples = 13</text>
<text text-anchor="middle" x="115.5" y="-22.8" font-family="Helvetica,sans-Serif" font-size="14.00">value = [13, 0]</text>
<text text-anchor="middle" x="115.5" y="-7.8" font-family="Helvetica,sans-Serif" font-size="14.00">class = benign</text>
</g>
<!-- 5&#45;&gt;6 -->
<g id="edge6" class="edge"><title>5&#45;&gt;6</title>
<path fill="none" stroke="black" d="M176.381,-103.726C168.301,-94.6054 159.73,-84.93 151.649,-75.8078"/>
<polygon fill="black" stroke="black" points="154.249,-73.4642 144.998,-68.2996 149.009,-78.1058 154.249,-73.4642"/>
</g>
<!-- 7 -->
<g id="node8" class="node"><title>7</title>
<path fill="#e58139" fill-opacity="0.333333" stroke="black" d="M291.5,-68C291.5,-68 199.5,-68 199.5,-68 193.5,-68 187.5,-62 187.5,-56 187.5,-56 187.5,-12 187.5,-12 187.5,-6 193.5,-0 199.5,-0 199.5,-0 291.5,-0 291.5,-0 297.5,-0 303.5,-6 303.5,-12 303.5,-12 303.5,-56 303.5,-56 303.5,-62 297.5,-68 291.5,-68"/>
<text text-anchor="middle" x="245.5" y="-52.8" font-family="Helvetica,sans-Serif" font-size="14.00">entropy = 0.971</text>
<text text-anchor="middle" x="245.5" y="-37.8" font-family="Helvetica,sans-Serif" font-size="14.00">samples = 5</text>
<text text-anchor="middle" x="245.5" y="-22.8" font-family="Helvetica,sans-Serif" font-size="14.00">value = [3, 2]</text>
<text text-anchor="middle" x="245.5" y="-7.8" font-family="Helvetica,sans-Serif" font-size="14.00">class = benign</text>
</g>
<!-- 5&#45;&gt;7 -->
<g id="edge7" class="edge"><title>5&#45;&gt;7</title>
<path fill="none" stroke="black" d="M224.788,-103.726C227.317,-95.3351 229.987,-86.4745 232.539,-78.0072"/>
<polygon fill="black" stroke="black" points="235.93,-78.8842 235.465,-68.2996 229.228,-76.8643 235.93,-78.8842"/>
</g>
<!-- 11 -->
<g id="node12" class="node"><title>11</title>
<path fill="#399de5" fill-opacity="0.250980" stroke="black" d="M674,-425C674,-425 531,-425 531,-425 525,-425 519,-419 519,-413 519,-413 519,-354 519,-354 519,-348 525,-342 531,-342 531,-342 674,-342 674,-342 680,-342 686,-348 686,-354 686,-354 686,-413 686,-413 686,-419 680,-425 674,-425"/>
<text text-anchor="middle" x="602.5" y="-409.8" font-family="Helvetica,sans-Serif" font-size="14.00">worst_texture &lt;= &#45;0.939</text>
<text text-anchor="middle" x="602.5" y="-394.8" font-family="Helvetica,sans-Serif" font-size="14.00">entropy = 0.985</text>
<text text-anchor="middle" x="602.5" y="-379.8" font-family="Helvetica,sans-Serif" font-size="14.00">samples = 56</text>
<text text-anchor="middle" x="602.5" y="-364.8" font-family="Helvetica,sans-Serif" font-size="14.00">value = [24, 32]</text>
<text text-anchor="middle" x="602.5" y="-349.8" font-family="Helvetica,sans-Serif" font-size="14.00">class = malignant</text>
</g>
<!-- 10&#45;&gt;11 -->
<g id="edge11" class="edge"><title>10&#45;&gt;11</title>
<path fill="none" stroke="black" d="M613.602,-460.907C612.389,-452.558 611.097,-443.671 609.841,-435.02"/>
<polygon fill="black" stroke="black" points="613.289,-434.414 608.388,-425.021 606.362,-435.42 613.289,-434.414"/>
</g>
<!-- 20 -->
<g id="node21" class="node"><title>20</title>
<path fill="#399de5" fill-opacity="0.992157" stroke="black" d="M860.5,-425C860.5,-425 716.5,-425 716.5,-425 710.5,-425 704.5,-419 704.5,-413 704.5,-413 704.5,-354 704.5,-354 704.5,-348 710.5,-342 716.5,-342 716.5,-342 860.5,-342 860.5,-342 866.5,-342 872.5,-348 872.5,-354 872.5,-354 872.5,-413 872.5,-413 872.5,-419 866.5,-425 860.5,-425"/>
<text text-anchor="middle" x="788.5" y="-409.8" font-family="Helvetica,sans-Serif" font-size="14.00">mean_texture &lt;= &#45;0.918</text>
<text text-anchor="middle" x="788.5" y="-394.8" font-family="Helvetica,sans-Serif" font-size="14.00">entropy = 0.066</text>
<text text-anchor="middle" x="788.5" y="-379.8" font-family="Helvetica,sans-Serif" font-size="14.00">samples = 127</text>
<text text-anchor="middle" x="788.5" y="-364.8" font-family="Helvetica,sans-Serif" font-size="14.00">value = [1, 126]</text>
<text text-anchor="middle" x="788.5" y="-349.8" font-family="Helvetica,sans-Serif" font-size="14.00">class = malignant</text>
</g>
<!-- 10&#45;&gt;20 -->
<g id="edge20" class="edge"><title>10&#45;&gt;20</title>
<path fill="none" stroke="black" d="M678.134,-460.907C692.16,-451.197 707.238,-440.758 721.606,-430.811"/>
<polygon fill="black" stroke="black" points="723.74,-433.591 729.97,-425.021 719.756,-427.835 723.74,-433.591"/>
</g>
<!-- 12 -->
<g id="node13" class="node"><title>12</title>
<path fill="#e58139" stroke="black" d="M505.5,-298.5C505.5,-298.5 421.5,-298.5 421.5,-298.5 415.5,-298.5 409.5,-292.5 409.5,-286.5 409.5,-286.5 409.5,-242.5 409.5,-242.5 409.5,-236.5 415.5,-230.5 421.5,-230.5 421.5,-230.5 505.5,-230.5 505.5,-230.5 511.5,-230.5 517.5,-236.5 517.5,-242.5 517.5,-242.5 517.5,-286.5 517.5,-286.5 517.5,-292.5 511.5,-298.5 505.5,-298.5"/>
<text text-anchor="middle" x="463.5" y="-283.3" font-family="Helvetica,sans-Serif" font-size="14.00">entropy = 0.0</text>
<text text-anchor="middle" x="463.5" y="-268.3" font-family="Helvetica,sans-Serif" font-size="14.00">samples = 14</text>
<text text-anchor="middle" x="463.5" y="-253.3" font-family="Helvetica,sans-Serif" font-size="14.00">value = [14, 0]</text>
<text text-anchor="middle" x="463.5" y="-238.3" font-family="Helvetica,sans-Serif" font-size="14.00">class = benign</text>
</g>
<!-- 11&#45;&gt;12 -->
<g id="edge12" class="edge"><title>11&#45;&gt;12</title>
<path fill="none" stroke="black" d="M554.275,-341.907C540.117,-329.99 524.655,-316.976 510.57,-305.12"/>
<polygon fill="black" stroke="black" points="512.808,-302.429 502.903,-298.667 508.3,-307.784 512.808,-302.429"/>
</g>
<!-- 13 -->
<g id="node14" class="node"><title>13</title>
<path fill="#399de5" fill-opacity="0.686275" stroke="black" d="M673,-306C673,-306 548,-306 548,-306 542,-306 536,-300 536,-294 536,-294 536,-235 536,-235 536,-229 542,-223 548,-223 548,-223 673,-223 673,-223 679,-223 685,-229 685,-235 685,-235 685,-294 685,-294 685,-300 679,-306 673,-306"/>
<text text-anchor="middle" x="610.5" y="-290.8" font-family="Helvetica,sans-Serif" font-size="14.00">worst_radius &lt;= 0.11</text>
<text text-anchor="middle" x="610.5" y="-275.8" font-family="Helvetica,sans-Serif" font-size="14.00">entropy = 0.792</text>
<text text-anchor="middle" x="610.5" y="-260.8" font-family="Helvetica,sans-Serif" font-size="14.00">samples = 42</text>
<text text-anchor="middle" x="610.5" y="-245.8" font-family="Helvetica,sans-Serif" font-size="14.00">value = [10, 32]</text>
<text text-anchor="middle" x="610.5" y="-230.8" font-family="Helvetica,sans-Serif" font-size="14.00">class = malignant</text>
</g>
<!-- 11&#45;&gt;13 -->
<g id="edge13" class="edge"><title>11&#45;&gt;13</title>
<path fill="none" stroke="black" d="M605.276,-341.907C605.846,-333.558 606.454,-324.671 607.046,-316.02"/>
<polygon fill="black" stroke="black" points="610.539,-316.236 607.729,-306.021 603.555,-315.759 610.539,-316.236"/>
</g>
<!-- 14 -->
<g id="node15" class="node"><title>14</title>
<path fill="#e58139" fill-opacity="0.498039" stroke="black" d="M649,-187C649,-187 470,-187 470,-187 464,-187 458,-181 458,-175 458,-175 458,-116 458,-116 458,-110 464,-104 470,-104 470,-104 649,-104 649,-104 655,-104 661,-110 661,-116 661,-116 661,-175 661,-175 661,-181 655,-187 649,-187"/>
<text text-anchor="middle" x="559.5" y="-171.8" font-family="Helvetica,sans-Serif" font-size="14.00">mean_smoothness &lt;= &#45;0.384</text>
<text text-anchor="middle" x="559.5" y="-156.8" font-family="Helvetica,sans-Serif" font-size="14.00">entropy = 0.918</text>
<text text-anchor="middle" x="559.5" y="-141.8" font-family="Helvetica,sans-Serif" font-size="14.00">samples = 12</text>
<text text-anchor="middle" x="559.5" y="-126.8" font-family="Helvetica,sans-Serif" font-size="14.00">value = [8, 4]</text>
<text text-anchor="middle" x="559.5" y="-111.8" font-family="Helvetica,sans-Serif" font-size="14.00">class = benign</text>
</g>
<!-- 13&#45;&gt;14 -->
<g id="edge14" class="edge"><title>13&#45;&gt;14</title>
<path fill="none" stroke="black" d="M592.806,-222.907C589.087,-214.377 585.124,-205.284 581.276,-196.456"/>
<polygon fill="black" stroke="black" points="584.367,-194.789 577.163,-187.021 577.95,-197.586 584.367,-194.789"/>
</g>
<!-- 17 -->
<g id="node18" class="node"><title>17</title>
<path fill="#399de5" fill-opacity="0.929412" stroke="black" d="M849.5,-187C849.5,-187 691.5,-187 691.5,-187 685.5,-187 679.5,-181 679.5,-175 679.5,-175 679.5,-116 679.5,-116 679.5,-110 685.5,-104 691.5,-104 691.5,-104 849.5,-104 849.5,-104 855.5,-104 861.5,-110 861.5,-116 861.5,-116 861.5,-175 861.5,-175 861.5,-181 855.5,-187 849.5,-187"/>
<text text-anchor="middle" x="770.5" y="-171.8" font-family="Helvetica,sans-Serif" font-size="14.00">worst_concavity &lt;= &#45;0.391</text>
<text text-anchor="middle" x="770.5" y="-156.8" font-family="Helvetica,sans-Serif" font-size="14.00">entropy = 0.353</text>
<text text-anchor="middle" x="770.5" y="-141.8" font-family="Helvetica,sans-Serif" font-size="14.00">samples = 30</text>
<text text-anchor="middle" x="770.5" y="-126.8" font-family="Helvetica,sans-Serif" font-size="14.00">value = [2, 28]</text>
<text text-anchor="middle" x="770.5" y="-111.8" font-family="Helvetica,sans-Serif" font-size="14.00">class = malignant</text>
</g>
<!-- 13&#45;&gt;17 -->
<g id="edge17" class="edge"><title>13&#45;&gt;17</title>
<path fill="none" stroke="black" d="M666.011,-222.907C679.166,-213.288 693.299,-202.953 706.787,-193.09"/>
<polygon fill="black" stroke="black" points="709.081,-195.749 715.087,-187.021 704.949,-190.098 709.081,-195.749"/>
</g>
<!-- 15 -->
<g id="node16" class="node"><title>15</title>
<path fill="#e58139" stroke="black" d="M483.5,-68C483.5,-68 399.5,-68 399.5,-68 393.5,-68 387.5,-62 387.5,-56 387.5,-56 387.5,-12 387.5,-12 387.5,-6 393.5,-0 399.5,-0 399.5,-0 483.5,-0 483.5,-0 489.5,-0 495.5,-6 495.5,-12 495.5,-12 495.5,-56 495.5,-56 495.5,-62 489.5,-68 483.5,-68"/>
<text text-anchor="middle" x="441.5" y="-52.8" font-family="Helvetica,sans-Serif" font-size="14.00">entropy = 0.0</text>
<text text-anchor="middle" x="441.5" y="-37.8" font-family="Helvetica,sans-Serif" font-size="14.00">samples = 6</text>
<text text-anchor="middle" x="441.5" y="-22.8" font-family="Helvetica,sans-Serif" font-size="14.00">value = [6, 0]</text>
<text text-anchor="middle" x="441.5" y="-7.8" font-family="Helvetica,sans-Serif" font-size="14.00">class = benign</text>
</g>
<!-- 14&#45;&gt;15 -->
<g id="edge15" class="edge"><title>14&#45;&gt;15</title>
<path fill="none" stroke="black" d="M515.561,-103.726C505.536,-94.423 494.889,-84.5428 484.886,-75.2612"/>
<polygon fill="black" stroke="black" points="487.095,-72.5362 477.384,-68.2996 482.334,-77.6673 487.095,-72.5362"/>
</g>
<!-- 16 -->
<g id="node17" class="node"><title>16</title>
<path fill="#399de5" fill-opacity="0.498039" stroke="black" d="M627,-68C627,-68 526,-68 526,-68 520,-68 514,-62 514,-56 514,-56 514,-12 514,-12 514,-6 520,-0 526,-0 526,-0 627,-0 627,-0 633,-0 639,-6 639,-12 639,-12 639,-56 639,-56 639,-62 633,-68 627,-68"/>
<text text-anchor="middle" x="576.5" y="-52.8" font-family="Helvetica,sans-Serif" font-size="14.00">entropy = 0.918</text>
<text text-anchor="middle" x="576.5" y="-37.8" font-family="Helvetica,sans-Serif" font-size="14.00">samples = 6</text>
<text text-anchor="middle" x="576.5" y="-22.8" font-family="Helvetica,sans-Serif" font-size="14.00">value = [2, 4]</text>
<text text-anchor="middle" x="576.5" y="-7.8" font-family="Helvetica,sans-Serif" font-size="14.00">class = malignant</text>
</g>
<!-- 14&#45;&gt;16 -->
<g id="edge16" class="edge"><title>14&#45;&gt;16</title>
<path fill="none" stroke="black" d="M565.83,-103.726C567.119,-95.4263 568.479,-86.6671 569.78,-78.2834"/>
<polygon fill="black" stroke="black" points="573.255,-78.7182 571.33,-68.2996 566.337,-77.6442 573.255,-78.7182"/>
</g>
<!-- 18 -->
<g id="node19" class="node"><title>18</title>
<path fill="#399de5" fill-opacity="0.333333" stroke="black" d="M804,-68C804,-68 703,-68 703,-68 697,-68 691,-62 691,-56 691,-56 691,-12 691,-12 691,-6 697,-0 703,-0 703,-0 804,-0 804,-0 810,-0 816,-6 816,-12 816,-12 816,-56 816,-56 816,-62 810,-68 804,-68"/>
<text text-anchor="middle" x="753.5" y="-52.8" font-family="Helvetica,sans-Serif" font-size="14.00">entropy = 0.971</text>
<text text-anchor="middle" x="753.5" y="-37.8" font-family="Helvetica,sans-Serif" font-size="14.00">samples = 5</text>
<text text-anchor="middle" x="753.5" y="-22.8" font-family="Helvetica,sans-Serif" font-size="14.00">value = [2, 3]</text>
<text text-anchor="middle" x="753.5" y="-7.8" font-family="Helvetica,sans-Serif" font-size="14.00">class = malignant</text>
</g>
<!-- 17&#45;&gt;18 -->
<g id="edge18" class="edge"><title>17&#45;&gt;18</title>
<path fill="none" stroke="black" d="M764.17,-103.726C762.881,-95.4263 761.521,-86.6671 760.22,-78.2834"/>
<polygon fill="black" stroke="black" points="763.663,-77.6442 758.67,-68.2996 756.745,-78.7182 763.663,-77.6442"/>
</g>
<!-- 19 -->
<g id="node20" class="node"><title>19</title>
<path fill="#399de5" stroke="black" d="M947,-68C947,-68 846,-68 846,-68 840,-68 834,-62 834,-56 834,-56 834,-12 834,-12 834,-6 840,-0 846,-0 846,-0 947,-0 947,-0 953,-0 959,-6 959,-12 959,-12 959,-56 959,-56 959,-62 953,-68 947,-68"/>
<text text-anchor="middle" x="896.5" y="-52.8" font-family="Helvetica,sans-Serif" font-size="14.00">entropy = 0.0</text>
<text text-anchor="middle" x="896.5" y="-37.8" font-family="Helvetica,sans-Serif" font-size="14.00">samples = 25</text>
<text text-anchor="middle" x="896.5" y="-22.8" font-family="Helvetica,sans-Serif" font-size="14.00">value = [0, 25]</text>
<text text-anchor="middle" x="896.5" y="-7.8" font-family="Helvetica,sans-Serif" font-size="14.00">class = malignant</text>
</g>
<!-- 17&#45;&gt;19 -->
<g id="edge19" class="edge"><title>17&#45;&gt;19</title>
<path fill="none" stroke="black" d="M817.418,-103.726C828.228,-94.3318 839.715,-84.349 850.486,-74.9883"/>
<polygon fill="black" stroke="black" points="852.93,-77.501 858.183,-68.2996 848.339,-72.2174 852.93,-77.501"/>
</g>
<!-- 21 -->
<g id="node22" class="node"><title>21</title>
<path fill="#399de5" fill-opacity="0.749020" stroke="black" d="M831,-298.5C831,-298.5 730,-298.5 730,-298.5 724,-298.5 718,-292.5 718,-286.5 718,-286.5 718,-242.5 718,-242.5 718,-236.5 724,-230.5 730,-230.5 730,-230.5 831,-230.5 831,-230.5 837,-230.5 843,-236.5 843,-242.5 843,-242.5 843,-286.5 843,-286.5 843,-292.5 837,-298.5 831,-298.5"/>
<text text-anchor="middle" x="780.5" y="-283.3" font-family="Helvetica,sans-Serif" font-size="14.00">entropy = 0.722</text>
<text text-anchor="middle" x="780.5" y="-268.3" font-family="Helvetica,sans-Serif" font-size="14.00">samples = 5</text>
<text text-anchor="middle" x="780.5" y="-253.3" font-family="Helvetica,sans-Serif" font-size="14.00">value = [1, 4]</text>
<text text-anchor="middle" x="780.5" y="-238.3" font-family="Helvetica,sans-Serif" font-size="14.00">class = malignant</text>
</g>
<!-- 20&#45;&gt;21 -->
<g id="edge21" class="edge"><title>20&#45;&gt;21</title>
<path fill="none" stroke="black" d="M785.724,-341.907C784.993,-331.204 784.2,-319.615 783.459,-308.776"/>
<polygon fill="black" stroke="black" points="786.942,-308.405 782.768,-298.667 779.958,-308.882 786.942,-308.405"/>
</g>
<!-- 22 -->
<g id="node23" class="node"><title>22</title>
<path fill="#399de5" stroke="black" d="M974,-298.5C974,-298.5 873,-298.5 873,-298.5 867,-298.5 861,-292.5 861,-286.5 861,-286.5 861,-242.5 861,-242.5 861,-236.5 867,-230.5 873,-230.5 873,-230.5 974,-230.5 974,-230.5 980,-230.5 986,-236.5 986,-242.5 986,-242.5 986,-286.5 986,-286.5 986,-292.5 980,-298.5 974,-298.5"/>
<text text-anchor="middle" x="923.5" y="-283.3" font-family="Helvetica,sans-Serif" font-size="14.00">entropy = 0.0</text>
<text text-anchor="middle" x="923.5" y="-268.3" font-family="Helvetica,sans-Serif" font-size="14.00">samples = 122</text>
<text text-anchor="middle" x="923.5" y="-253.3" font-family="Helvetica,sans-Serif" font-size="14.00">value = [0, 122]</text>
<text text-anchor="middle" x="923.5" y="-238.3" font-family="Helvetica,sans-Serif" font-size="14.00">class = malignant</text>
</g>
<!-- 20&#45;&gt;22 -->
<g id="edge22" class="edge"><title>20&#45;&gt;22</title>
<path fill="none" stroke="black" d="M835.338,-341.907C848.961,-330.101 863.827,-317.217 877.404,-305.45"/>
<polygon fill="black" stroke="black" points="879.966,-307.861 885.23,-298.667 875.381,-302.571 879.966,-307.861"/>
</g>
</g>
</svg>
